<svg width="375" height="667" viewBox="0 0 375 667" fill="none" xmlns="http://www.w3.org/2000/svg">
<rect width="375" height="667" fill="#0500FF"/>
<path d="M88 352.669V314H102.7C111.653 314 116.847 317.756 116.847 324.22C116.847 329.081 113.974 331.843 109.553 332.782C114.692 333.445 118.229 336.152 118.229 341.676C118.229 348.415 112.924 352.669 103.418 352.669H88ZM102.921 320.518H96.2895V329.909H102.921C106.458 329.909 108.558 328.086 108.558 325.214C108.558 322.341 106.513 320.518 102.921 320.518ZM103.474 336.317H96.2895V346.095H103.474C107.453 346.095 109.719 344.272 109.719 341.289C109.719 338.14 107.397 336.317 103.474 336.317Z" fill="white"/>
<path d="M136.248 353C126.798 353 121.106 347.31 121.106 338.527C121.106 329.688 126.908 323.943 135.695 323.943C144.206 323.943 149.953 329.246 150.064 337.588C150.064 338.416 150.008 339.356 149.843 340.239H129.229V340.626C129.395 344.659 131.993 347.089 135.916 347.089C139.066 347.089 141.277 345.708 141.94 343.057H149.622C148.737 348.581 143.819 353 136.248 353ZM129.395 335.157H142.216C141.664 331.677 139.287 329.744 135.75 329.744C132.379 329.744 129.837 331.788 129.395 335.157Z" fill="white"/>
<path d="M150.509 318.419V314H180.406V318.419H167.861V352.669H163.054V318.419H150.509Z" fill="white"/>
<path d="M203.221 348.525H204.658V352.669H202.171C198.413 352.669 197.142 351.067 197.087 348.305C195.318 350.846 192.5 353 187.637 353C181.447 353 177.247 349.906 177.247 344.769C177.247 339.135 181.171 335.986 188.576 335.986H196.866V334.052C196.866 330.407 194.268 328.197 189.847 328.197C185.868 328.197 183.216 330.075 182.663 332.948H178.131C178.795 327.424 183.271 324.164 190.068 324.164C197.253 324.164 201.397 327.755 201.397 334.329V346.647C201.397 348.139 201.95 348.525 203.221 348.525ZM196.866 341.178V339.797H188.134C184.1 339.797 181.834 341.289 181.834 344.493C181.834 347.255 184.21 349.133 187.968 349.133C193.605 349.133 196.866 345.874 196.866 341.178Z" fill="white"/>
<path d="M205.931 352.669V314H210.463V352.669H205.931Z" fill="white"/>
<path d="M227.447 353C218.992 353 213.465 347.2 213.465 338.582C213.465 330.02 218.881 324.164 226.839 324.164C234.797 324.164 239.992 329.191 240.213 337.533C240.213 338.14 240.158 338.803 240.102 339.466H218.218V339.853C218.384 345.211 221.755 348.967 227.115 348.967C231.094 348.967 234.189 346.868 235.129 343.222H239.715C238.61 348.857 233.968 353 227.447 353ZM218.494 335.71H235.35C234.908 330.848 231.592 328.142 226.894 328.142C222.75 328.142 218.936 331.125 218.494 335.71Z" fill="white"/>
<path d="M256.989 324.164C263.344 324.164 268.373 327.644 268.373 336.98V352.669H263.842V337.256C263.842 331.401 261.134 328.307 256.215 328.307C250.91 328.307 247.705 332.229 247.705 338.582V352.669H243.173V324.496H247.097L247.705 328.307C249.363 326.153 252.237 324.164 256.989 324.164Z" fill="white"/>
<path d="M274.04 345.322V328.639H268.956V324.496H274.04V316.596H278.572V324.496H285.867V328.639H278.572V345.266C278.572 347.642 279.401 348.525 281.833 348.525H286.309V352.669H281.391C275.975 352.669 274.04 350.293 274.04 345.322Z" fill="white"/>
</svg>
